<svg width="172" height="67" viewBox="0 0 172 67" fill="none" xmlns="http://www.w3.org/2000/svg">
<g clip-path="url(#clip0_0_3)">
<path d="M48.2642 42V27.4545H51.3395V33.456H57.5824V27.4545H60.6506V42H57.5824V35.9915H51.3395V42H48.2642ZM72.1705 27.4545H75.2457V36.9006C75.2457 37.9612 74.9924 38.8892 74.4858 39.6847C73.9839 40.4801 73.2808 41.1004 72.3764 41.5455C71.4721 41.9858 70.4186 42.206 69.2159 42.206C68.0085 42.206 66.9527 41.9858 66.0483 41.5455C65.1439 41.1004 64.4408 40.4801 63.9389 39.6847C63.437 38.8892 63.1861 37.9612 63.1861 36.9006V27.4545H66.2614V36.6378C66.2614 37.1918 66.3821 37.6842 66.6236 38.1151C66.8698 38.5459 67.2154 38.8845 67.6605 39.1307C68.1056 39.3769 68.6241 39.5 69.2159 39.5C69.8125 39.5 70.331 39.3769 70.7713 39.1307C71.2164 38.8845 71.5597 38.5459 71.8011 38.1151C72.0473 37.6842 72.1705 37.1918 72.1705 36.6378V27.4545ZM77.7759 27.4545H81.5685L85.5742 37.2273H85.7447L89.7504 27.4545H93.543V42H90.56V32.5327H90.4393L86.6751 41.929H84.6438L80.8796 32.4972H80.7589V42H77.7759V27.4545ZM122.13 27.4545V42H119.473L113.145 32.8452H113.039V42H109.963V27.4545H112.662L118.941 36.6023H119.069V27.4545H122.13ZM143.713 42H138.557V27.4545H143.756C145.219 27.4545 146.479 27.7457 147.534 28.3281C148.59 28.9058 149.402 29.7367 149.971 30.821C150.543 31.9053 150.83 33.2027 150.83 34.7131C150.83 36.2282 150.543 37.5303 149.971 38.6193C149.402 39.7083 148.586 40.544 147.52 41.1264C146.46 41.7088 145.191 42 143.713 42ZM141.632 39.3651H143.586C144.495 39.3651 145.259 39.2041 145.88 38.8821C146.505 38.5554 146.973 38.0511 147.286 37.3693C147.603 36.6828 147.762 35.7973 147.762 34.7131C147.762 33.6383 147.603 32.7599 147.286 32.0781C146.973 31.3963 146.507 30.8944 145.887 30.5724C145.266 30.2505 144.502 30.0895 143.593 30.0895H141.632V39.3651Z" fill="#A2B8C8"/>
<g filter="url(#filter0_d_0_3)">
<path d="M105.266 41.9091L101.663 30.5817H101.524L97.9134 41.9091H94.4191L99.5586 27H103.621L108.768 41.9091H105.266Z" fill="#A2B8C8"/>
</g>
<g filter="url(#filter1_d_0_3)">
<path d="M161.266 41.9091L157.663 30.5817H157.524L153.913 41.9091H150.419L155.559 27H159.621L164.768 41.9091H161.266Z" fill="#A2B8C8"/>
</g>
<path d="M129.743 21C130.743 21 131.562 21.945 131.562 23.1C131.562 24.255 130.743 25.2 129.743 25.2C128.743 25.2 127.924 24.255 127.924 23.1C127.924 21.945 128.743 21 129.743 21ZM133.289 27.405C132.926 26.985 132.289 26.25 131.107 26.25H128.834C126.287 26.25 124.287 23.94 124.287 21H122.468C122.468 24.36 124.378 27.09 127.015 28.035V42H128.834V35.7H130.652V42H132.471V29.505L136.108 33.6L137.381 32.13L133.289 27.405Z" fill="#A2B8C8"/>
<path d="M31 25.4211C31.58 25.4211 32.05 25.6421 32.42 26.0732C32.8 26.5263 33 27.0237 33 27.6316V39.7895C33 40.3974 32.8 40.8947 32.42 41.3479C32.05 41.7789 31.58 42 31 42H15C14.42 42 13.95 41.7789 13.58 41.3479C13.2 40.8947 13 40.3974 13 39.7895V27.6316C13 27.0237 13.2 26.5263 13.58 26.0732C13.95 25.6421 14.42 25.4211 15 25.4211H19V23.2105C19 22.5695 19.2 22.05 19.58 21.6411C19.95 21.2211 20.42 21 21 21H25C25.58 21 26.05 21.2211 26.42 21.6411C26.8 22.05 27 22.5695 27 23.2105V25.4211H31ZM15 27.6316V39.7895H31V27.6316H15ZM25 25.4211V23.2105H21V25.4211H25Z" fill="#A2B8C8"/>
<path d="M31.747 38.1757L31.4243 37.1868L25.2179 39.7064L26.5087 43.6622C26.8669 44.7599 27.9432 45.3197 28.9274 44.9202L41.3402 39.8809C42.3243 39.4814 42.8262 38.2809 42.468 37.1832L41.1772 33.2274L34.9708 35.747L35.2935 36.7359L31.747 38.1757ZM37.7089 25.6758L34.1624 27.1156L33.517 25.1377L31.0983 23.8797L27.5518 25.3195L26.4239 28.0172L27.0693 29.9951L23.5228 31.4349C22.5475 31.8309 22.04 33.0449 22.395 34.1327L23.3631 37.0995C23.7213 38.1973 24.7976 38.7571 25.7818 38.3575L31.1016 36.1978L30.4561 34.22L34.0027 32.7802L34.6481 34.7581L39.9679 32.5984C40.9431 32.2024 41.4507 30.9884 41.0957 29.9006L40.1276 26.9338C39.7726 25.8459 38.6842 25.2798 37.7089 25.6758ZM32.3891 27.8355L28.8426 29.2752L28.1972 27.2974L31.7437 25.8576L32.3891 27.8355Z" fill="#A2B8C8"/>
</g>
<defs>
<filter id="filter0_d_0_3" x="90.4191" y="27" width="22.3486" height="22.9091" filterUnits="userSpaceOnUse" color-interpolation-filters="sRGB">
<feFlood flood-opacity="0" result="BackgroundImageFix"/>
<feColorMatrix in="SourceAlpha" type="matrix" values="0 0 0 0 0 0 0 0 0 0 0 0 0 0 0 0 0 0 127 0" result="hardAlpha"/>
<feOffset dy="4"/>
<feGaussianBlur stdDeviation="2"/>
<feComposite in2="hardAlpha" operator="out"/>
<feColorMatrix type="matrix" values="0 0 0 0 0 0 0 0 0 0 0 0 0 0 0 0 0 0 0.25 0"/>
<feBlend mode="normal" in2="BackgroundImageFix" result="effect1_dropShadow_0_3"/>
<feBlend mode="normal" in="SourceGraphic" in2="effect1_dropShadow_0_3" result="shape"/>
</filter>
<filter id="filter1_d_0_3" x="146.419" y="27" width="22.3486" height="22.9091" filterUnits="userSpaceOnUse" color-interpolation-filters="sRGB">
<feFlood flood-opacity="0" result="BackgroundImageFix"/>
<feColorMatrix in="SourceAlpha" type="matrix" values="0 0 0 0 0 0 0 0 0 0 0 0 0 0 0 0 0 0 127 0" result="hardAlpha"/>
<feOffset dy="4"/>
<feGaussianBlur stdDeviation="2"/>
<feComposite in2="hardAlpha" operator="out"/>
<feColorMatrix type="matrix" values="0 0 0 0 0 0 0 0 0 0 0 0 0 0 0 0 0 0 0.25 0"/>
<feBlend mode="normal" in2="BackgroundImageFix" result="effect1_dropShadow_0_3"/>
<feBlend mode="normal" in="SourceGraphic" in2="effect1_dropShadow_0_3" result="shape"/>
</filter>
<clipPath id="clip0_0_3">
<rect width="172" height="67" fill="white"/>
</clipPath>
</defs>
</svg>
